<svg width="24" height="24" viewBox="0 0 24 24" fill="none" xmlns="http://www.w3.org/2000/svg">
<path d="M18.1695 1H5.82549C4.26746 1 3 2.09589 3 3.443V20.557C3 21.9041 4.26746 23 5.82549 23H18.1745C19.7325 23 21 21.9041 21 20.557V3.443C21 2.09589 19.7325 1 18.1695 1ZM19.5873 20.5613C19.5873 21.2371 18.951 21.7828 18.1745 21.7828H5.82549C5.04397 21.7828 4.41275 21.2327 4.41275 20.5613V3.443C4.41275 2.76728 5.04898 2.2215 5.82549 2.2215H18.1745C18.956 2.2215 19.5873 2.77161 19.5873 3.443V20.5613Z" fill="#2F3C46"/>
<path d="M17.3568 4.60156H6.65186C6.26168 4.60156 5.94653 4.92896 5.94653 5.33432V9.59574C5.94653 10.0011 6.26168 10.3285 6.65186 10.3285H17.3568C17.747 10.3285 18.0621 10.0011 18.0621 9.59574V5.33432C18.0621 4.92896 17.747 4.60156 17.3568 4.60156ZM16.6515 8.86298H7.35719V6.06707H16.6515V8.86298Z" fill="#2F3C46"/>
<path d="M7.77238 12.1733H6.65186C6.26168 12.1733 5.94653 12.5007 5.94653 12.9061C5.94653 13.3115 6.26168 13.6389 6.65186 13.6389H7.77238C8.16256 13.6389 8.47771 13.3115 8.47771 12.9061C8.47771 12.5007 8.16256 12.1733 7.77238 12.1733Z" fill="#2F3C46"/>
<path d="M12.5649 12.1733H11.4443C11.0542 12.1733 10.739 12.5007 10.739 12.9061C10.739 13.3115 11.0542 13.6389 11.4443 13.6389H12.5649C12.955 13.6389 13.2702 13.3115 13.2702 12.9061C13.2702 12.5007 12.955 12.1733 12.5649 12.1733Z" fill="#2F3C46"/>
<path d="M17.3569 12.1733H16.2363C15.8462 12.1733 15.531 12.5007 15.531 12.9061C15.531 13.3115 15.8462 13.6389 16.2363 13.6389H17.3569C17.747 13.6389 18.0622 13.3115 18.0622 12.9061C18.0622 12.5007 17.747 12.1733 17.3569 12.1733Z" fill="#2F3C46"/>
<path d="M7.77238 15.5356H6.65186C6.26168 15.5356 5.94653 15.863 5.94653 16.2684C5.94653 16.6738 6.26168 17.0012 6.65186 17.0012H7.77238C8.16256 17.0012 8.47771 16.6738 8.47771 16.2684C8.47771 15.863 8.16256 15.5356 7.77238 15.5356Z" fill="#2F3C46"/>
<path d="M12.5649 15.5356H11.4443C11.0542 15.5356 10.739 15.863 10.739 16.2684C10.739 16.6738 11.0542 17.0012 11.4443 17.0012H12.5649C12.955 17.0012 13.2702 16.6738 13.2702 16.2684C13.2702 15.863 12.955 15.5356 12.5649 15.5356Z" fill="#2F3C46"/>
<path d="M17.3569 15.5356H16.2363C15.8462 15.5356 15.531 15.863 15.531 16.2684C15.531 16.6738 15.8462 17.0012 16.2363 17.0012H17.3569C17.747 17.0012 18.0622 16.6738 18.0622 16.2684C18.0622 15.863 17.747 15.5356 17.3569 15.5356Z" fill="#2F3C46"/>
<path d="M7.77238 18.8979H6.65186C6.26168 18.8979 5.94653 19.2254 5.94653 19.6307C5.94653 20.0361 6.26168 20.3635 6.65186 20.3635H7.77238C8.16256 20.3635 8.47771 20.0361 8.47771 19.6307C8.47771 19.2254 8.16256 18.8979 7.77238 18.8979Z" fill="#2F3C46"/>
<path d="M12.5649 18.8979H11.4443C11.0542 18.8979 10.739 19.2254 10.739 19.6307C10.739 20.0361 11.0542 20.3635 11.4443 20.3635H12.5649C12.955 20.3635 13.2702 20.0361 13.2702 19.6307C13.2702 19.2254 12.955 18.8979 12.5649 18.8979Z" fill="#2F3C46"/>
<path d="M17.3569 18.8979H16.2363C15.8462 18.8979 15.531 19.2254 15.531 19.6307C15.531 20.0361 15.8462 20.3635 16.2363 20.3635H17.3569C17.747 20.3635 18.0622 20.0361 18.0622 19.6307C18.0622 19.2254 17.747 18.8979 17.3569 18.8979Z" fill="#2F3C46"/>
</svg>
