<svg width="24" height="24" viewBox="0 0 24 24" fill="none" xmlns="http://www.w3.org/2000/svg">
<path d="M20.0593 6.51473L15.1684 1.2308C15.032 1.08348 14.8479 1 14.6548 1H5.00022C4.59795 1 4.27295 1.35112 4.27295 1.78571V22.2143C4.27295 22.6489 4.59795 23 5.00022 23H19.5457C19.9479 23 20.2729 22.6489 20.2729 22.2143V7.0721C20.2729 6.86339 20.1957 6.66205 20.0593 6.51473ZM18.5957 7.43304H14.3184V2.81205L18.5957 7.43304ZM18.6366 21.2321H5.90931V2.76786H12.7729V8.07143C12.7729 8.34493 12.8735 8.60724 13.0525 8.80063C13.2315 8.99403 13.4743 9.10268 13.7275 9.10268H18.6366V21.2321ZM12.3207 13.6721L10.9161 11.1578C10.8661 11.0694 10.7775 11.0154 10.682 11.0154H9.80931C9.75704 11.0154 9.70704 11.0301 9.66386 11.0621C9.53659 11.148 9.49795 11.3297 9.57977 11.4696L11.4502 14.6714L9.55477 17.9321C9.52901 17.9769 9.51479 18.0282 9.51356 18.0809C9.51233 18.1335 9.52415 18.1856 9.54779 18.2316C9.57142 18.2777 9.60602 18.3161 9.64801 18.3429C9.68999 18.3697 9.73783 18.3838 9.78659 18.3839H10.5707C10.6661 18.3839 10.7525 18.3299 10.8025 18.244L12.2275 15.7518L13.6434 18.2415C13.6934 18.3299 13.782 18.3815 13.8752 18.3815H14.7275C14.7798 18.3815 14.8298 18.3643 14.8752 18.3348C15.0025 18.2464 15.0389 18.0647 14.957 17.9272L13.0479 14.7254L14.9866 11.4721C15.0128 11.4275 15.0275 11.3761 15.0292 11.3233C15.0308 11.2705 15.0193 11.2182 14.9958 11.1718C14.9724 11.1254 14.9379 11.0867 14.8959 11.0596C14.8539 11.0325 14.8059 11.0181 14.757 11.0179H13.9457C13.8502 11.0179 13.7616 11.0719 13.7116 11.1603L12.3207 13.6721Z" fill="#2F3C46"/>
</svg>
