<svg width="24" height="24" viewBox="0 0 24 24" fill="none" xmlns="http://www.w3.org/2000/svg">
<path d="M20.8401 4.61012C20.3294 4.09912 19.7229 3.69376 19.0555 3.4172C18.388 3.14064 17.6726 2.99829 16.9501 2.99829C16.2276 2.99829 15.5122 3.14064 14.8448 3.4172C14.1773 3.69376 13.5709 4.09912 13.0601 4.61012L12.0001 5.67012L10.9401 4.61012C9.90843 3.57842 8.50915 2.99883 7.05012 2.99883C5.59109 2.99883 4.19181 3.57842 3.16012 4.61012C2.12843 5.64181 1.54883 7.04108 1.54883 8.50012C1.54883 9.95915 2.12843 11.3584 3.16012 12.3901L4.22012 13.4501L12.0001 21.2301L19.7801 13.4501L20.8401 12.3901C21.3511 11.8794 21.7565 11.2729 22.033 10.6055C22.3096 9.93801 22.4519 9.2226 22.4519 8.50012C22.4519 7.77763 22.3096 7.06222 22.033 6.39476C21.7565 5.7273 21.3511 5.12087 20.8401 4.61012V4.61012Z"  stroke-width="2" stroke-linecap="round" stroke-linejoin="round"/>
</svg>


<svg width="16" height="16" viewBox="0 0 16 16" fill="none" xmlns="http://www.w3.org/2000/svg">
<path fill="none" d="M13.8933 3.07333C13.5528 2.73267 13.1485 2.46243 12.7036 2.27805C12.2586 2.09368 11.7817 1.99878 11.3 1.99878C10.8183 1.99878 10.3414 2.09368 9.89643 2.27805C9.45145 2.46243 9.04717 2.73267 8.70666 3.07333L8 3.78L7.29333 3.07333C6.60554 2.38553 5.67269 1.99914 4.7 1.99914C3.72731 1.99914 2.79446 2.38553 2.10666 3.07333C1.41887 3.76112 1.03247 4.69397 1.03247 5.66666C1.03247 6.63935 1.41887 7.5722 2.10666 8.26L2.81333 8.96666L8 14.1533L13.1867 8.96666L13.8933 8.26C14.234 7.91949 14.5042 7.51521 14.6886 7.07023C14.873 6.62526 14.9679 6.14832 14.9679 5.66666C14.9679 5.185 14.873 4.70807 14.6886 4.26309C14.5042 3.81812 14.234 3.41383 13.8933 3.07333Z" fill="#EB617C" stroke="#EB617C" stroke-width="2" stroke-linecap="round" stroke-linejoin="round"/>
</svg>
