<svg width="24" height="24" viewBox="0 0 24 24" fill="none" xmlns="http://www.w3.org/2000/svg">
<path d="M21.3057 11.6505L20.9642 12L21.3057 12.3495L23.381 14.473C23.5206 14.6272 23.5019 14.8495 23.3904 14.961L23.3904 14.9609L23.3864 14.9651L21.3057 17.0941L20.9642 17.4436L21.3057 17.793L23.3864 19.9221L23.3864 19.9221L23.3904 19.9261C23.4704 20.0061 23.5087 20.1511 23.4467 20.3124C23.4083 20.4122 23.2952 20.5 23.1391 20.5H1.84868C1.69261 20.5 1.57952 20.4122 1.54115 20.3124L1.5353 20.2972L1.52846 20.2824C1.47446 20.1654 1.49779 20.0257 1.59739 19.9261L1.59741 19.9262L1.60143 19.9221L3.68209 17.793L4.02362 17.4436L3.68209 17.0941L1.60677 14.9705C1.47501 14.8251 1.47501 14.6185 1.60677 14.473L3.68209 12.3495L4.02362 12L3.68209 11.6505L1.60675 9.52695C1.47501 9.38152 1.47501 9.17493 1.60675 9.0295L3.68209 6.90592L4.02362 6.55645L3.68209 6.20698L1.60143 4.07795L1.60145 4.07793L1.59739 4.07387C1.51744 3.99392 1.47908 3.84895 1.54115 3.68756C1.57952 3.58782 1.69261 3.5 1.84868 3.5H23.1391C23.2952 3.5 23.4083 3.58781 23.4467 3.68756L23.4525 3.70278L23.4594 3.71759C23.5134 3.83459 23.49 3.97427 23.3904 4.07387L23.3904 4.07384L23.3864 4.07795L21.3057 6.20698L20.9642 6.55645L21.3057 6.90592L23.3811 9.02949C23.5128 9.17492 23.5128 9.38153 23.3811 9.52696L21.3057 11.6505ZM21.1311 19.8306H22.3221L21.488 18.9805L20.2356 17.7041C20.1039 17.5584 20.1043 17.3515 20.2367 17.2061L22.3132 15.0571L22.6508 14.7077L22.3112 14.3602L20.2359 12.2366C20.1042 12.0912 20.1042 11.8846 20.2359 11.7392L22.3112 9.6156L22.6528 9.26613L22.3112 8.91666L20.2359 6.79309C20.1047 6.64824 20.1042 6.44268 20.2344 6.29734L21.4846 5.0471L22.3382 4.19355H21.1311H3.85676H2.66572L3.49985 5.04372L4.75218 6.32012C4.88365 6.46553 4.88357 6.67195 4.75191 6.81727L2.67658 8.94086L2.33505 9.29032L2.67658 9.63979L4.75191 11.7634C4.88366 11.9088 4.88365 12.1154 4.75191 12.2608L2.67658 14.3844L2.33505 14.7339L2.67658 15.0833L4.75191 17.2069C4.88357 17.3523 4.88366 17.5587 4.75218 17.7041L3.49985 18.9805L2.66572 19.8306H3.85676H21.1311Z" fill="#00A3A5" stroke="#6D899D"/>
<path d="M11.194 11.2125L11.2065 11.2271L11.2201 11.2407C11.4423 11.4629 11.7579 11.629 12.1301 11.629H12.8559C13.4256 11.629 13.9791 11.8654 14.3333 12.2942L14.3409 12.3034L14.3488 12.3121C14.7421 12.7447 14.9315 13.2825 14.8748 13.8582C14.777 14.7063 14.1377 15.4288 13.2555 15.6248L12.864 15.7118V16.1129V16.8226H12.122V16.1371V15.7035L11.6927 15.6421C10.9471 15.5356 10.3776 14.9824 10.2511 14.2661H11.0412C11.1766 14.6668 11.5548 14.9194 11.9607 14.9194H12.8075C13.4579 14.9194 14.045 14.4298 14.1262 13.7798L14.1264 13.7798L14.1276 13.7675C14.1666 13.3774 14.0419 13.0509 13.8162 12.7875L13.8037 12.7729L13.7901 12.7593C13.5678 12.5371 13.2523 12.371 12.8801 12.371H12.2511C11.1555 12.371 10.2306 11.5531 10.1359 10.5498C10.0393 9.52524 10.7355 8.59081 11.7497 8.37627L12.1462 8.29239V7.8871V7.25H12.8882V7.93548V8.36913L13.3174 8.43046C14.0631 8.53698 14.6326 9.09019 14.7591 9.80645H13.9768C13.8487 9.39175 13.4635 9.12903 13.0494 9.12903H12.2027C11.5408 9.12903 10.9667 9.5824 10.884 10.2444L10.8839 10.2444L10.8832 10.2512C10.8412 10.629 10.9745 10.9564 11.194 11.2125Z" fill="#00A3A5" stroke="#6D899D"/>
</svg>
