<svg width="6" height="20" viewBox="0 0 6 20" fill="none" xmlns="http://www.w3.org/2000/svg">
<path d="M0 3C0 3.79565 0.31607 4.55871 0.878679 5.12132C1.44129 5.68393 2.20435 6 3 6C3.79565 6 4.55871 5.68393 5.12132 5.12132C5.68393 4.55871 6 3.79565 6 3C6 2.20435 5.68393 1.44129 5.12132 0.87868C4.55871 0.316071 3.79565 0 3 0C2.20435 0 1.44129 0.316071 0.878679 0.87868C0.31607 1.44129 0 2.20435 0 3ZM3 4C2.73478 4 2.48043 3.89464 2.29289 3.70711C2.10536 3.51957 2 3.26522 2 3C2 2.73478 2.10536 2.48043 2.29289 2.29289C2.48043 2.10536 2.73478 2 3 2C3.26522 2 3.51957 2.10536 3.70711 2.29289C3.89464 2.48043 4 2.73478 4 3C4 3.26522 3.89464 3.51957 3.70711 3.70711C3.51957 3.89464 3.26522 4 3 4ZM3 13C2.20435 13 1.44129 12.6839 0.878679 12.1213C0.31607 11.5587 0 10.7956 0 10C0 9.20435 0.31607 8.44129 0.878679 7.87868C1.44129 7.31607 2.20435 7 3 7C3.79565 7 4.55871 7.31607 5.12132 7.87868C5.68393 8.44129 6 9.20435 6 10C6 10.7956 5.68393 11.5587 5.12132 12.1213C4.55871 12.6839 3.79565 13 3 13ZM2 10C2 10.2652 2.10536 10.5196 2.29289 10.7071C2.48043 10.8946 2.73478 11 3 11C3.26522 11 3.51957 10.8946 3.70711 10.7071C3.89464 10.5196 4 10.2652 4 10C4 9.73478 3.89464 9.48043 3.70711 9.29289C3.51957 9.10536 3.26522 9 3 9C2.73478 9 2.48043 9.10536 2.29289 9.29289C2.10536 9.48043 2 9.73478 2 10ZM3 20C2.20435 20 1.44129 19.6839 0.878679 19.1213C0.31607 18.5587 0 17.7956 0 17C0 16.2044 0.31607 15.4413 0.878679 14.8787C1.44129 14.3161 2.20435 14 3 14C3.79565 14 4.55871 14.3161 5.12132 14.8787C5.68393 15.4413 6 16.2044 6 17C6 17.7956 5.68393 18.5587 5.12132 19.1213C4.55871 19.6839 3.79565 20 3 20ZM2 17C2 17.2652 2.10536 17.5196 2.29289 17.7071C2.48043 17.8946 2.73478 18 3 18C3.26522 18 3.51957 17.8946 3.70711 17.7071C3.89464 17.5196 4 17.2652 4 17C4 16.7348 3.89464 16.4804 3.70711 16.2929C3.51957 16.1054 3.26522 16 3 16C2.73478 16 2.48043 16.1054 2.29289 16.2929C2.10536 16.4804 2 16.7348 2 17Z" fill="#6D899D"/>
</svg>
