<svg width="24" height="24" viewBox="0 0 24 24" fill="none" xmlns="http://www.w3.org/2000/svg">
<path d="M13 2V9H20" stroke="#6D899D" stroke-width="2" stroke-linecap="round" stroke-linejoin="round"/>
<path fill-rule="evenodd" clip-rule="evenodd" d="M6 1C5.20435 1 4.44129 1.31607 3.87868 1.87868C3.31607 2.44129 3 3.20435 3 4V20C3 20.7957 3.31607 21.5587 3.87868 22.1213C4.44129 22.6839 5.20435 23 6 23H14.0343C15.0374 23.6334 16.2259 24 17.5 24C21.0899 24 24 21.0899 24 17.5C24 13.9101 21.0899 11 17.5 11C13.9101 11 11 13.9101 11 17.5C11 18.7886 11.375 19.9897 12.0218 21H6C5.73478 21 5.48043 20.8946 5.29289 20.7071C5.10536 20.5196 5 20.2652 5 20V4C5 3.73478 5.10536 3.48043 5.29289 3.29289C5.48043 3.10536 5.73478 3 6 3H12.5858L19.2929 9.70711C19.6834 10.0976 20.3166 10.0976 20.7071 9.70711C21.0976 9.31658 21.0976 8.68342 20.7071 8.29289L13.7071 1.29289C13.5196 1.10536 13.2652 1 13 1H6ZM15.5 21C16.0523 21 16.5 20.5523 16.5 20V15C16.5 14.4477 16.0523 14 15.5 14C14.9477 14 14.5 14.4477 14.5 15V20C14.5 20.5523 14.9477 21 15.5 21ZM19.5 14C20.0523 14 20.5 14.4477 20.5 15V20C20.5 20.5523 20.0523 21 19.5 21C18.9477 21 18.5 20.5523 18.5 20V15C18.5 14.4477 18.9477 14 19.5 14Z" fill="#6D899D"/>
</svg>
