<svg width="24" height="24" viewBox="0 0 24 24" fill="none" xmlns="http://www.w3.org/2000/svg">
<path d="M12.1886 14.0321L12.1955 13.9978C12.3273 13.4109 12.4932 12.6792 12.3636 12.0163C12.2773 11.4933 11.9205 11.2895 11.6159 11.2748C11.2568 11.2576 10.9364 11.4786 10.8568 11.8002C10.7068 12.3895 10.8409 13.1949 11.0864 14.2212C10.7773 15.0167 10.2841 16.1732 9.92273 16.8607C9.25 17.2364 8.34773 17.8158 8.21364 18.5475C8.18636 18.6826 8.21818 18.8545 8.29318 19.0092C8.37727 19.181 8.51136 19.3136 8.66818 19.3775C8.73636 19.4045 8.81818 19.4266 8.91364 19.4266C9.31364 19.4266 9.96136 19.0779 10.825 17.477C10.9568 17.4304 11.0932 17.3812 11.225 17.3321C11.8432 17.1062 12.4841 16.8705 13.0636 16.765C13.7045 17.1357 14.4341 17.3739 14.9295 17.3739C15.4205 17.3739 15.6136 17.0596 15.6864 16.8705C15.8136 16.5391 15.7523 16.1217 15.5455 15.8982C15.2455 15.579 14.5159 15.4955 13.3795 15.6478C12.8205 15.2795 12.4545 14.7786 12.1886 14.0321ZM9.69546 17.7618C9.37955 18.2578 9.14091 18.5058 9.01136 18.6138C9.16364 18.3118 9.46136 17.9926 9.69546 17.7618ZM11.6864 11.9795C11.8045 12.198 11.7886 12.8585 11.6977 13.1924C11.5864 12.7038 11.5705 12.0114 11.6364 11.9304C11.6545 11.9328 11.6705 11.9475 11.6864 11.9795ZM11.65 14.9382C11.8932 15.3924 12.2 15.7828 12.5386 16.0725C12.0477 16.1929 11.6 16.3917 11.2 16.5685C11.1045 16.6103 11.0114 16.652 10.9205 16.6913C11.2227 16.0996 11.475 15.4292 11.65 14.9382ZM15.1864 16.5464C15.1886 16.5513 15.1909 16.5587 15.1773 16.5685H15.1727L15.1682 16.5759C15.15 16.5882 14.9636 16.706 14.1614 16.3647C15.0841 16.3181 15.1841 16.544 15.1864 16.5464ZM19.5364 7.01473L14.6455 1.7308C14.5091 1.58348 14.325 1.5 14.1318 1.5H4.47727C4.075 1.5 3.75 1.85112 3.75 2.28571V22.7143C3.75 23.1489 4.075 23.5 4.47727 23.5H19.0227C19.425 23.5 19.75 23.1489 19.75 22.7143V7.5721C19.75 7.36339 19.6727 7.16205 19.5364 7.01473ZM18.0727 7.93304H13.7955V3.31205L18.0727 7.93304ZM18.1136 21.7321H5.38636V3.26786H12.25V8.57143C12.25 8.84493 12.3506 9.10724 12.5296 9.30063C12.7086 9.49403 12.9514 9.60268 13.2045 9.60268H18.1136V21.7321Z" fill="#2F3C46"/>
</svg>
