<svg width="24" height="24" viewBox="0 0 24 24" fill="none" xmlns="http://www.w3.org/2000/svg">
<path d="M7.94075 18.8945L8.25158 19.2095L8.4955 18.9623C9.52093 17.923 11.1835 17.923 12.2089 18.9623L12.4528 19.2095L12.6968 18.9623C13.7222 17.923 15.3847 17.923 16.4102 18.9623L16.6541 19.2095L16.9642 18.8953C17.7166 18.1326 18.8315 17.9179 19.7884 18.3027V4.12905H5.10063V18.3084C6.06126 17.9147 7.18425 18.1278 7.94075 18.8945ZM6.45537 20.4C6.27836 20.2206 6.00102 20.1927 5.79273 20.3335L3.81646 21.6688C3.7302 21.7271 3.62884 21.7582 3.52516 21.7582C3.23512 21.7582 3 21.5199 3 21.2259V4.12905C3 2.95321 3.94048 2 5.10063 2H19.7884C20.9485 2 21.889 2.95321 21.889 4.12905V21.223C21.889 21.3285 21.8581 21.4317 21.8001 21.5193C21.6386 21.7635 21.3124 21.8288 21.0715 21.6651L19.1133 20.335C18.9049 20.1934 18.6269 20.221 18.4495 20.4007L17.0254 21.8441C16.8204 22.052 16.4878 22.052 16.2828 21.8441L14.9248 20.4678C14.7197 20.2599 14.3872 20.2599 14.1821 20.4678L12.8242 21.8441C12.6191 22.052 12.2866 22.052 12.0815 21.8441L10.7236 20.4678C10.5185 20.2599 10.186 20.2599 9.98087 20.4678L8.62292 21.8441C8.41783 22.052 8.08532 22.052 7.88024 21.8441L6.45537 20.4Z" fill="#6D899D"/>
<path d="M7 8H17V6H7V8Z" fill="#6D899D"/>
<path d="M7 13H12V11H7V13Z" fill="#6D899D"/>
<path d="M14 13H17V11H14V13Z" fill="#6D899D"/>
</svg>
