<svg width="24" height="24" viewBox="0 0 24 24" fill="none" xmlns="http://www.w3.org/2000/svg">
<path fill-rule="evenodd" clip-rule="evenodd" d="M8.25158 19.2095L7.94075 18.8945C7.18425 18.1278 6.06126 17.9147 5.10063 18.3084V4.12905H19.7884V11.7669L19.8272 13H21.8186L21.8001 10.7022L21.889 4.12905C21.889 2.95321 20.9485 2 19.7884 2H5.10063C3.94048 2 3 2.95321 3 4.12905V21.2259C3 21.5199 3.23512 21.7582 3.52516 21.7582C3.62884 21.7582 3.7302 21.7271 3.81646 21.6688L5.79273 20.3335C6.00102 20.1927 6.27836 20.2206 6.45537 20.4L7.88023 21.8441C8.08532 22.052 8.41783 22.052 8.62292 21.8441L9.98087 20.4678C10.186 20.2599 10.5185 20.2599 10.7236 20.4678L12.0815 21.8441C12.2866 22.052 12.6191 22.052 12.8242 21.8441L13 21.6659V18.6981C12.894 18.7771 12.7926 18.8652 12.6968 18.9623L12.4528 19.2095L12.2089 18.9623C11.1835 17.923 9.52093 17.923 8.4955 18.9623L8.25158 19.2095ZM7.00011 8H17.0001V6H7.00011V8ZM12.0001 13H7.00011V11H12.0001V13Z" fill="#6D899D"/>
<path fill-rule="evenodd" clip-rule="evenodd" d="M17.5 24C21.0899 24 24 21.0899 24 17.5C24 13.9101 21.0899 11 17.5 11C13.9101 11 11 13.9101 11 17.5C11 21.0899 13.9101 24 17.5 24ZM21.7205 15.6935C22.1035 15.2956 22.0914 14.6625 21.6935 14.2795C21.2956 13.8965 20.6625 13.9086 20.2795 14.3065L16.1875 18.558L14.7205 17.0338C14.3375 16.6359 13.7044 16.6238 13.3065 17.0068C12.9086 17.3898 12.8965 18.0228 13.2795 18.4207L15.467 20.6935C15.6555 20.8893 15.9157 21 16.1875 21C16.4593 21 16.7195 20.8893 16.908 20.6935L21.7205 15.6935Z" fill="#6D899D"/>
</svg>