<svg width="16" height="16" viewBox="0 0 16 16" fill="none" xmlns="http://www.w3.org/2000/svg">

<path d="M9.33398 1.33301V5.33301H13.334" stroke="#2F3C46" stroke-width="1.5" stroke-linecap="round" stroke-linejoin="round"/>
<path d="M8.66732 8.66699H5.33398" stroke="#2F3C46" stroke-width="1.5" stroke-linecap="round" stroke-linejoin="round"/>
<path d="M6.66732 6H6.00065H5.33398" stroke="#2F3C46" stroke-width="1.5" stroke-linecap="round" stroke-linejoin="round"/>
<path fill-rule="evenodd" clip-rule="evenodd" d="M3.99935 0.583008C3.44681 0.583008 2.91691 0.802501 2.52621 1.1932C2.13551 1.5839 1.91602 2.11381 1.91602 2.66634V13.333C1.91602 13.8855 2.13551 14.4154 2.52621 14.8061C2.91691 15.1968 3.44681 15.4163 3.99935 15.4163H9.0946C8.69393 14.9933 8.3847 14.4827 8.19854 13.9163H3.99935C3.84464 13.9163 3.69627 13.8549 3.58687 13.7455C3.47747 13.6361 3.41602 13.4877 3.41602 13.333V2.66634C3.41602 2.51163 3.47747 2.36326 3.58687 2.25386C3.69627 2.14447 3.84464 2.08301 3.99935 2.08301H9.02202L12.5827 5.64367V8.70857C13.1258 8.78792 13.6334 8.9764 14.0827 9.25103V5.33301C14.0827 5.1341 14.0037 4.94333 13.863 4.80268L9.86301 0.802678C9.72236 0.662025 9.53159 0.583008 9.33268 0.583008H3.99935Z" fill="#2F3C46"/>
<path d="M14.2561 11.0796C14.1258 10.9488 13.971 10.845 13.8007 10.7742C13.6304 10.7034 13.4479 10.667 13.2636 10.667C13.0792 10.667 12.8967 10.7034 12.7264 10.7742C12.5561 10.845 12.4014 10.9488 12.271 11.0796L12.0006 11.3509L11.7301 11.0796C11.4669 10.8155 11.1099 10.6671 10.7376 10.6671C10.3653 10.6671 10.0083 10.8155 9.7451 11.0796C9.48187 11.3436 9.33398 11.7018 9.33398 12.0753C9.33398 12.4487 9.48187 12.8069 9.7451 13.0709L10.0156 13.3423L12.0006 15.3337L13.9856 13.3423L14.2561 13.0709C14.3864 12.9402 14.4899 12.785 14.5604 12.6141C14.631 12.4433 14.6673 12.2602 14.6673 12.0753C14.6673 11.8903 14.631 11.7072 14.5604 11.5364C14.4899 11.3655 14.3864 11.2103 14.2561 11.0796Z" fill="#2F3C46" stroke="#2F3C46" stroke-width="1.5" stroke-linecap="round" stroke-linejoin="round"/>

</svg>
