<svg width="16" height="16" viewBox="0 0 16 16" fill="none" xmlns="http://www.w3.org/2000/svg">
<path d="M11.4932 11.1833H4.46822C4.28294 11.1833 4.13961 11.2254 4.00065 11.3335L3.00065 12.3335V4.00016H11.0007V6.3335L12.4659 4.75757V3.20385C12.4659 2.74067 12.0799 2.37012 11.6322 2.37012H2.16772C1.70453 2.37012 1.33398 2.74067 1.33398 3.20385V13.5947C1.33398 13.9189 1.50382 14.1968 1.79717 14.3512C1.92069 14.413 2.0442 14.4439 2.16772 14.4439C2.33756 14.4439 2.52283 14.3821 2.67723 14.274L4.46822 12.8536H11.6322C12.0954 12.8536 12.4659 12.4676 12.4659 12.0198V10.2047L12.0007 10.6668L11.4932 11.1833Z" fill="#2F3C46"/>
<path d="M13.5512 4.87071L10.6557 8.10161L12.0354 9.33813L14.931 6.10724L13.5512 4.87071Z" fill="#2F3C46"/>
<path d="M15.9081 4.60536L14.9508 3.74074C14.8427 3.63267 14.6574 3.6481 14.5648 3.75618L13.9935 4.40464L15.3677 5.63981L15.9389 4.99135C16.0316 4.88327 16.0161 4.698 15.9081 4.60536Z" fill="#2F3C46"/>
<path d="M9.96416 10.6114L11.1376 10.2717C11.1839 10.2563 11.2302 10.2254 11.2611 10.1945L11.6008 9.82398L10.2266 8.58882L9.88696 8.95937C9.85608 9.00568 9.8252 9.052 9.8252 9.09832L9.62449 10.3026C9.59361 10.5033 9.77888 10.6577 9.96416 10.6114Z" fill="#2F3C46"/>
</svg>